<?xml version="1.0" encoding="utf-8"?>
<!-- Generator: Adobe Illustrator 19.2.1, SVG Export Plug-In . SVG Version: 6.00 Build 0)  -->
<svg version="1.1" id="layer" xmlns="http://www.w3.org/2000/svg" xmlns:xlink="http://www.w3.org/1999/xlink" x="0px" y="0px"
	 viewBox="0 0 652 652" style="enable-background:new 0 0 652 652;" xml:space="preserve">
<style type="text/css">
	.st0{fill:#57B7DD;}
	.st1{fill:#F99132;}
	.st2{fill:#A98BBC;}
	.st3{fill:#FF6D56;}
	.st4{fill:#8AC539;}
	.st5{fill:#FFBE0A;}
</style>
<path d="M493.1,335.4c0,7-5.8,9.5-10.6,9.5c-8.7,0-9.7-4.4-9.7-6.3c0-1.6,0.5-3.9,2.5-5.2s5.2-1.5,9.3-1.5h8.4L493.1,335.4
	L493.1,335.4z M474.6,318c0.2-1.4,0.9-2.7,2.1-3.6c1.7-1.4,4.1-2,7-2c3.2,0,5.6,0.7,7.2,2c1.4,1.4,2.2,3.1,2.2,5.6v2.8h-8.6
	c-5.1,0-10.4,0.3-14.6,3.3c-3.8,2.7-6,7-6,12.2c0,9.4,7.3,15.4,18.5,15.4c4.6,0,9.5-1.8,12.2-4.4l0.2,3.6h7v-32.9
	c0-5.3-1.8-9.5-5.3-12.5c-3.7-2.9-8.2-4.4-12.9-4.2c-5.3,0-9.5,1.4-12.9,4.2c-3.1,2.6-4.7,5.8-5,9.6L474.6,318L474.6,318z
	 M289.6,335.4c0,7-5.7,9.5-10.6,9.5c-8.8,0-9.7-4.4-9.7-6.3c0-1.6,0.4-3.9,2.4-5.2c2.1-1.4,5.2-1.5,9.3-1.5h8.5V335.4z M271.1,318
	c0.2-1.4,0.9-2.7,2.1-3.6c1.7-1.4,4.1-2,7.1-2c3.2,0,5.6,0.7,7.2,2c1.5,1.4,2.2,3.1,2.2,5.6v2.8h-8.5c-5.1,0-10.4,0.3-14.7,3.3
	c-3.8,2.7-5.9,7-5.9,12.2c0,9.4,7.2,15.4,18.5,15.4c4.5,0,9.5-1.8,12.2-4.4l0.2,3.6h7v-32.9c0-5.3-1.8-9.5-5.3-12.5
	c-3.7-2.9-8.3-4.4-12.9-4.2c-5.2,0-9.5,1.4-12.9,4.2c-3.1,2.6-4.7,5.8-4.9,9.6L271.1,318L271.1,318z M383.9,328.4
	c0,5.4-0.8,9.7-2.9,12.6c-1.8,2.6-4.6,3.9-8.3,3.9c-3.8,0-6.5-1.3-8.4-3.9c-2-2.9-3.1-7.1-3.1-12.6c0-5.3,1-9.2,3.1-12.2
	c1.9-2.6,4.6-3.9,8.4-3.9s6.5,1.3,8.3,3.9C383.1,319.2,383.9,323.1,383.9,328.4z M382.5,286.7v20.4c-2.7-2.5-6.2-3.8-9.8-3.7h-0.1
	c-5.9-0.2-11.4,2.5-15,7.1c-3.8,5.2-5.6,11.5-5.3,17.9c0,7.8,1.7,13.8,5.3,18.3c3.6,4.6,9.2,7.3,15,7.1h0.1c4.4,0,8.8-2.2,11.4-4.9
	l0.3,4.1h7v-66.2H382.5L382.5,286.7z M568.7,336.2c-0.1,2.7-1,4.7-2.7,6.2c-2,1.7-4.5,2.5-7.4,2.5c-3.8,0-6.5-1.3-8.4-3.9
	c-2.3-3.7-3.4-8-3.2-12.4c0-5.4,1.1-9.5,3.2-12.4c1.9-2.6,4.6-3.9,8.4-3.9c2.9,0,5.4,0.8,7.4,2.5c1.7,1.4,2.5,3.4,2.7,6.1l8.6-0.5
	c-0.2-5.4-2-9.5-5.5-12.5c-3.6-3-8.1-4.6-13.2-4.6c-5.9-0.2-11.6,2.4-15.2,7.1c-3.7,5.3-5.6,11.6-5.2,18.1c0,7.6,1.7,13.5,5.2,18.1
	c3.6,4.7,9.3,7.3,15.2,7.1c5.1,0,9.6-1.6,13.2-4.6c3.5-3,5.3-7,5.5-12.5L568.7,336.2z M531.3,344.5c-1.7,1.2-3.8,1.2-5.7-0.1
	c-0.9-0.7-2.4-2.2-2.4-5.2v-26h8.6v-8.9h-8.6v-9.1h-8.9v9.2h-5.1v8.9h5.1v26c0,6.2,2.7,11.2,7.4,13.5c4.7,2.3,10.4,1.7,14.5-1.6
	l0.3-0.3l-4.9-6.7L531.3,344.5z M443.3,337.7l-9.5-33.4h-8.3l-9.5,33.4l-9.6-33.4h-8.5l13.9,48.7h8.3l9.5-33.5l9.5,33.4h8.3
	l13.9-48.7h-8.5L443.3,337.7z M214.7,307.5c0,3-0.9,5.1-2.6,6.5c-2,1.5-5.2,2.2-9.5,2.2h-10.1v-17.6h9.8
	C214.7,298.8,214.7,304.9,214.7,307.5 M214.4,341.3c-2,1.8-5.1,2.7-9,2.7h-12.9v-18.9h13.7c3.6,0.1,6.3,1,8.3,2.8
	c1.9,1.7,2.7,3.7,2.7,6.2C217.3,337.3,216.4,339.6,214.4,341.3 M218.7,320c3.3-3.3,5.1-7.8,4.9-12.4c0.3-5.2-2-10.1-6-13.4
	c-4.6-3.2-10.2-4.8-15.8-4.5h-18.1V353h21.5c6.4,0,11.5-1.7,15.2-5c3.9-3.5,5.8-8.1,5.8-13.9c0-4.2-1.5-8-4.4-11.3
	C220.8,321.7,219.8,320.8,218.7,320 M326,303.4c-11.5,0-18.4,7.4-18.4,19.9V353h8.9v-29.7c0-3.2,0.9-10.8,9.6-10.8
	c8.7,0,9.5,7.6,9.5,10.8V353h8.9v-29.7c0-12.5-6.9-19.9-18.4-19.9 M604.5,303.4c-4.1,0-7.6,1.1-10.8,3.7v-20.3h-8.8V353h8.8v-29.5
	c0-7.3,5.1-11.1,10.2-11.1c6.3,0,9.1,5.6,9.1,10.8V353h8.9v-29C621.8,304.4,607.4,303.4,604.5,303.4 M252.5,303.4
	c-11.5,0-18.5,7.4-18.5,19.9V353h8.9v-29.7c0-3.2,0.9-10.8,9.6-10.8c0.7,0,2,0,3.2,0.4l2.3-8.7C256.2,303.7,254.3,303.4,252.5,303.4
	"/>
<path class="st0" d="M21.9,294v35.4l41.4,19.6l42.4-44.6l-27.7-50.5c-0.9,0.3-1.8,0.7-2.6,1.2l-46,26.5
	C24.7,284,21.9,288.7,21.9,294"/>
<path class="st1" d="M63.3,348.9l49.9,23.5l22.6-13.1l-30.2-55.1L63.3,348.9z"/>
<path class="st2" d="M130.5,278.2L89.9,255c-3.6-2-7.9-2.5-11.8-1.2l27.7,50.5l24.8-26.1L130.5,278.2z"/>
<path class="st3" d="M135.9,359.4h0.1c4.5-2.6,7.2-7.4,7.2-12.5V294c0-5.2-2.7-9.9-7.2-12.6l-5.5-3.1l-24.8,26.1L135.9,359.4
	L135.9,359.4z"/>
<path class="st4" d="M21.9,329.3v17.5c0,5.1,2.8,9.9,7.3,12.5l15.6,9l18.5-19.5L21.9,329.3z"/>
<path class="st5" d="M44.9,368.4l30.4,17.5c4.5,2.6,10.1,2.6,14.6,0l23.3-13.4l-49.9-23.5C63.3,348.9,44.9,368.4,44.9,368.4z"/>
</svg>
